#!OML:ASF H:\Terrain\Patient Classification 1\Animal2\Wednesday\Animal2.ASF
:FULLY-SPECIFIED
:DEGREES
334
root 8.52622 16.1407 -22.8715 21.8047 0.71171 -1.65904
lowerback 21.9008 -0.989182 1.95445
upperback 13.147 -0.947192 -2.03693
thorax 2.07484 -0.268565 -3.10282
lowerneck 7.04359 5.72118 17.0445
upperneck 1.9091 8.89912 -16.592
head 0.922093 4.70815 -7.91138
rclavicle -3.18055e-015 -1.43125e-014
rhumerus 19.707 37.8554 -29.2548
rradius 59.3688
rwrist -14.12
rhand -0.00359751 21.1103
rfingers 7.12502
rthumb 25.5869 -7.1909
lclavicle -3.18055e-015 -1.43125e-014
lhumerus 11.1789 -30.5899 33.7442
lradius 59.1923
lwrist 10.0324
lhand -18.7216 25.8564
lfingers 7.12502
lthumb 7.57392 55.7008
rfemur -42.2102 0.443105 -4.27069
rtibia 41.7729
rfoot -20.6347 -6.64647
rtoes -33.2159
lfemur -47.4412 6.89597 2.94682
ltibia 45.8931
lfoot -18.5757 2.32285
ltoes -48.5637
335
root 8.51914 16.1437 -22.8696 21.7334 0.588944 -1.71652
lowerback 21.8313 -1.04458 1.81348
upperback 13.0579 -1.0442 -2.01371
thorax 2.00353 -0.329063 -2.97801
lowerneck 7.14218 5.83304 16.8255
upperneck 1.87098 9.04411 -16.6968
head 0.914375 4.78388 -7.90878
rclavicle 1.35174e-014 2.78299e-015
rhumerus 20.3826 36.7383 -29.9636
rradius 57.4376
rwrist -13.0525
rhand -0.644685 20.5644
rfingers 7.12502
rthumb 24.9727 -7.82364
lclavicle 1.35174e-014 2.78299e-015
lhumerus 9.28252 -28.7571 35.8342
lradius 56.6413
lwrist 9.40929
lhand -18.9336 25.254
lfingers 7.12502
lthumb 7.36929 55.1057
rfemur -42.2091 0.463761 -4.18214
rtibia 41.7209
rfoot -20.4681 -6.6311
rtoes -33.9044
lfemur -47.249 7.11538 2.94217
ltibia 45.7931
lfoot -18.6164 2.26043
ltoes -48.8341
336
root 8.51355 16.1467 -22.8674 21.6842 0.61051 -1.83265
lowerback 21.6688 -0.98233 2.09119
upperback 12.9576 -0.922548 -2.09734
thorax 1.97753 -0.25088 -3.24957
lowerneck 7.26075 5.70561 17.1982
upperneck 1.91031 8.92291 -16.7288
head 0.903663 4.7308 -7.99012
rclavicle -7.95139e-015 -4.37326e-015
rhumerus 20.364 35.1894 -31.2392
rradius 55.2971
rwrist -11.8372
rhand -1.6616 20.3876
rfingers 7.12502
rthumb 23.9979 -8.13233
lclavicle -7.95139e-015 -4.37326e-015
lhumerus 8.2714 -27.337 37.2678
lradius 54.0584
lwrist 8.95406
lhand -19.3671 24.5246
lfingers 7.12502
lthumb 6.95078 54.3905
rfemur -42.1383 0.515634 -4.0286
rtibia 41.6773
rfoot -20.2923 -6.97405
rtoes -35.4866
lfemur -47.1389 7.28849 3.04106
ltibia 45.7036
lfoot -18.6031 1.69623
ltoes -48.0974
337
root 8.50801 16.1491 -22.8622 21.5259 0.640022 -1.74003
lowerback 21.5021 -0.967341 2.10321
upperback 12.9453 -0.903787 -2.13892
thorax 2.04664 -0.237939 -3.30543
lowerneck 7.43482 5.63602 17.2347
upperneck 1.80516 8.84839 -16.7081
head 0.832314 4.70066 -8.00085
rclavicle -4.77083e-015 -1.82882e-014
rhumerus 20.6463 33.6529 -32.2979
rradius 53.1736
rwrist -10.807
rhand -3.03722 19.9438
rfingers 7.12502
rthumb 22.6782 -8.74366
lclavicle -4.77083e-015 -1.82882e-014
lhumerus 7.19322 -25.561 38.8818
lradius 51.4495
lwrist 8.79267
lhand -19.9774 24.2678
lfingers 7.12502
lthumb 6.36166 54.1523
rfemur -41.9125 0.549462 -4.11169
rtibia 41.6615
rfoot -20.2811 -7.02129
rtoes -35.7543
lfemur -46.9219 7.21615 2.97183
ltibia 45.6065
lfoot -18.6067 1.31673
ltoes -47.2139
338
root 8.5012 16.1527 -22.8558 21.3921 0.676348 -1.52828
lowerback 21.3308 -1.03026 1.89969
upperback 12.9391 -1.01887 -2.16595
thorax 2.11594 -0.304415 -3.19737
lowerneck 7.64074 5.66835 17.2125
upperneck 1.60366 8.90384 -16.8167
head 0.753842 4.73796 -8.04248
rclavicle 4.77083e-015 3.18055e-015
rhumerus 21.2095 32.0763 -33.4612
rradius 51.0224
rwrist -10.0145
rhand -4.02474 18.8221
rfingers 7.12502
rthumb 21.7302 -9.97824
lclavicle 4.77083e-015 3.18055e-015
lhumerus 5.88774 -23.2736 40.6165
lradius 48.9788
lwrist 9.01993
lhand -20.4821 24.6916
lfingers 7.12502
lthumb 5.87436 54.5902
rfemur -41.7037 0.514464 -4.31306
rtibia 41.6802
rfoot -20.3376 -6.90483
rtoes -35.5649
lfemur -46.7231 6.98056 2.80566
ltibia 45.5036
lfoot -18.515 1.77548
ltoes -48.1602
339
root 8.4949 16.1533 -22.8543 21.3294 0.769275 -1.43784
lowerback 21.1792 -1.07935 1.94061
upperback 12.9434 -1.07612 -2.24871
thorax 2.19016 -0.325372 -3.29967
lowerneck 7.39307 5.72193 17.4366
upperneck 1.66519 8.96631 -16.8714
head 0.836505 4.76164 -8.08396
rclavicle -4.77083e-015 5.96354e-015
rhumerus 21.6425 29.9973 -35.1467
rradius 48.495
rwrist -8.83601
rhand -5.48907 18.4083
rfingers 7.12502
rthumb 20.3234 -10.5483
lclavicle -4.77083e-015 5.96354e-015
lhumerus 5.07609 -20.564 42.0829
lradius 46.2417
lwrist 8.87659
lhand -20.3518 25.0811
lfingers 7.12502
lthumb 6.00017 54.9761
rfemur -41.5736 0.506087 -4.40701
rtibia 41.7361
rfoot -20.4845 -6.65181
rtoes -35.0985
lfemur -46.6438 6.78537 2.78153
ltibia 45.4225
lfoot -18.4408 2.14456
ltoes -48.7354
340
root 8.48928 16.1502 -22.853 21.1834 0.738262 -1.47457
lowerback 21.1687 -1.09809 2.00403
upperback 12.6901 -1.09286 -2.28357
thorax 1.91111 -0.336524 -3.36678
lowerneck 8.16172 5.59549 17.5455
upperneck 1.50606 8.90212 -16.964
head 0.661329 4.76101 -8.17024
rclavicle 7.95139e-016 -5.1684e-015
rhumerus 21.8569 28.3101 -36.9745
rradius 45.7849
rwrist -7.48617
rhand -7.08288 18.7883
rfingers 7.12502
rthumb 18.7911 -10.3241
lclavicle 7.95139e-016 -5.1684e-015
lhumerus 3.90485 -17.5069 43.8097
lradius 43.389
lwrist 8.22382
lhand -20.1435 25.163
lfingers 7.12502
lthumb 6.20131 55.0523
rfemur -41.4789 0.563865 -4.36453
rtibia 41.8107
rfoot -20.5762 -6.55895
rtoes -35.0944
lfemur -46.4365 6.75366 2.85765
ltibia 45.3703
lfoot -18.5348 2.01311
ltoes -48.2235
341
root 8.48162 16.1482 -22.8495 21.0138 0.57732 -1.59736
lowerback 21.0312 -1.12161 1.95068
upperback 12.8684 -1.13368 -2.24335
thorax 2.17527 -0.356511 -3.28892
lowerneck 7.31641 5.83604 17.2293
upperneck 1.79364 9.10523 -16.996
head 0.906321 4.82786 -8.08041
rclavicle 4.77083e-015 -5.1684e-015
rhumerus 23.0313 25.9298 -38.4187
rradius 43.0798
rwrist -6.18023
rhand -8.05223 18.9076
rfingers 7.12502
rthumb 17.8586 -10.2924
lclavicle 4.77083e-015 -5.1684e-015
lhumerus 3.34561 -13.2283 45.4494
lradius 40.5575
lwrist 7.49801
lhand -20.2108 25.1964
lfingers 7.12502
lthumb 6.13631 55.0875
rfemur -41.44 0.683745 -4.21938
rtibia 41.8678
rfoot -20.7224 -6.63482
rtoes -35.3501
lfemur -46.1256 6.89484 2.98618
ltibia 45.3291
lfoot -18.5811 1.75797
ltoes -47.794
342
root 8.47414 16.1511 -22.8479 20.8757 0.500529 -1.65093
lowerback 20.8865 -1.06369 2.03946
upperback 12.9329 -1.04841 -2.28679
thorax 2.32408 -0.304409 -3.404
lowerneck 6.8426 5.8538 17.3782
upperneck 2.06462 9.09893 -17.0114
head 1.0692 4.80684 -8.08657
rclavicle -7.95139e-016 -6.75868e-015
rhumerus 23.4248 23.2856 -40.4277
rradius 40.4243
rwrist -4.6533
rhand -9.98875 18.9877
rfingers 7.12502
rthumb 15.9945 -10.3721
lclavicle -7.95139e-016 -6.75868e-015
lhumerus 3.10115 -9.32967 46.7947
lradius 37.663
lwrist 6.92682
lhand -20.6239 25.1535
lfingers 7.12502
lthumb 5.73748 55.0558
rfemur -41.3598 0.750584 -4.12757
rtibia 41.8899
rfoot -20.8629 -6.64149
rtoes -35.1535
lfemur -45.8775 6.94206 3.05608
ltibia 45.2624
lfoot -18.5372 1.85456
ltoes -48.1328
343
root 8.46725 16.1576 -22.8476 20.7598 0.502319 -1.66305
lowerback 20.8086 -1.16064 1.98551
upperback 12.8349 -1.18222 -2.22916
thorax 2.24422 -0.379594 -3.28582
lowerneck 7.1296 5.93937 17.0233
upperneck 1.90536 9.21136 -16.9266
head 0.975194 4.87102 -8.00965
rclavicle -1.03368e-014 -9.93923e-015
rhumerus 23.9929 21.0082 -42.5496
rradius 37.7758
rwrist -3.13897
rhand -12.2219 18.8357
rfingers 7.12502
rthumb 13.8432 -10.6836
lclavicle -1.03368e-014 -9.93923e-015
lhumerus 2.31294 -4.81437 48.2363
lradius 34.7917
lwrist 6.39472
lhand -21.5589 25.4048
lfingers 7.12502
lthumb 4.83468 55.3296
rfemur -41.2524 0.764124 -4.06567
rtibia 41.8858
rfoot -20.8157 -6.60594
rtoes -34.8695
lfemur -45.6891 6.88104 3.10259
ltibia 45.1556
lfoot -18.4459 2.12716
ltoes -48.6215
344
root 8.46127 16.1648 -22.8466 20.65 0.506442 -1.73091
lowerback 20.7914 -1.2129 2.02236
upperback 12.6837 -1.24421 -2.17385
thorax 2.08033 -0.415459 -3.23387
lowerneck 7.54788 5.95509 16.7233
upperneck 1.53154 9.23201 -16.8216
head 0.78323 4.89594 -7.94835
rclavicle 7.95139e-016 -9.14409e-015
rhumerus 24.4461 18.1201 -45.1324
rradius 35.2061
rwrist -1.34915
rhand -10.9581 18.19
rfingers 7.12502
rthumb 15.0609 -11.2421
lclavicle 7.95139e-016 -9.14409e-015
lhumerus 1.69712 -0.162447 49.5492
lradius 32.2364
lwrist 6.20781
lhand -23.1523 25.927
lfingers 7.12502
lthumb 3.29604 55.8813
rfemur -41.1467 0.811496 -3.94618
rtibia 41.8787
rfoot -20.777 -6.58245
rtoes -34.6349
lfemur -45.4992 6.85355 3.2091
ltibia 45.0276
lfoot -18.3295 2.00026
ltoes -48.3253
345
root 8.45717 16.1674 -22.8463 20.5996 0.525748 -1.73501
lowerback 20.7424 -1.25295 2.09474
upperback 12.4896 -1.28566 -2.16585
thorax 1.88537 -0.437933 -3.25633
lowerneck 7.95369 5.90405 16.5391
upperneck 1.23355 9.17646 -16.787
head 0.610559 4.88382 -7.93109
rclavicle -9.54166e-015 -1.07344e-014
rhumerus 24.7947 14.9965 -47.8384
rradius 32.8561
rwrist 0.41462
rhand -15.3076 18.3296
rfingers 7.12502
rthumb 10.8681 -11.3691
lclavicle -9.54166e-015 -1.07344e-014
lhumerus 1.17291 4.20361 50.5199
lradius 30.0112
lwrist 6.86576
lhand -24.707 26.5259
lfingers 7.12502
lthumb 1.79452 56.4981
rfemur -41.0928 0.771866 -3.89464
rtibia 41.8875
rfoot -20.8057 -6.52108
rtoes -34.696
lfemur -45.3894 6.81756 3.24505
ltibia 44.9118
lfoot -18.2897 1.81503
ltoes -47.9859
346
root 8.45094 16.1653 -22.8477 20.5858 0.585899 -1.83302
lowerback 20.6197 -1.25305 2.30453
upperback 12.3911 -1.25452 -2.15435
thorax 1.83761 -0.413631 -3.369
lowerneck 7.76231 5.87806 16.4901
upperneck 1.42526 9.12768 -16.6431
head 0.679987 4.8491 -7.86611
rclavicle -1.59028e-015 7.55382e-015
rhumerus 25.0808 11.3079 -50.7994
rradius 30.7765
rwrist 2.21319
rhand -17.1894 18.1203
rfingers 7.12502
rthumb 9.05255 -11.6654
lclavicle -1.59028e-015 7.55382e-015
lhumerus 0.969016 8.24282 51.2741
lradius 27.9449
lwrist 8.10088
lhand -26.125 26.9932
lfingers 7.12502
lthumb 0.425007 56.9725
rfemur -41.0991 0.750861 -3.74287
rtibia 41.9166
rfoot -20.8785 -6.46241
rtoes -34.836
lfemur -45.3434 6.87567 3.37486
ltibia 44.8208
lfoot -18.322 1.73731
ltoes -47.9324
347
root 8.44327 16.1646 -22.8473 20.5136 0.608244 -1.90972
lowerback 20.4804 -1.2087 2.46656
upperback 12.3947 -1.17471 -2.15064
thorax 1.91598 -0.364029 -3.47344
lowerneck 7.23664 5.89219 16.4613
upperneck 1.73963 9.10007 -16.4334
head 0.841777 4.81152 -7.76628
rclavicle -7.95139e-015 9.54166e-015
rhumerus 25.5053 7.26164 -53.9165
rradius 29.0649
rwrist 3.34161
rhand -23.5187 19.2967
rfingers 7.12502
rthumb 2.94219 -10.6627
lclavicle -7.95139e-015 9.54166e-015
lhumerus 1.0512 12.282 52.0486
lradius 25.8323
lwrist 9.01593
lhand -28.2027 27.7255
lfingers 7.12502
lthumb -1.58169 57.6994
rfemur -41.0481 0.76512 -3.61398
rtibia 41.9678
rfoot -20.8763 -6.41958
rtoes -35.0123
lfemur -45.2228 6.93626 3.47115
ltibia 44.7364
lfoot -18.3317 1.82865
ltoes -48.2181
348
root 8.43614 16.1653 -22.8464 20.3857 0.549597 -1.71551
lowerback 20.4246 -1.14191 2.38593
upperback 12.3095 -1.10433 -2.23961
thorax 1.85441 -0.331839 -3.53537
lowerneck 7.12256 5.78612 16.7525
upperneck 1.86983 8.98074 -16.6333
head 0.899706 4.75178 -7.87752
rclavicle 4.77083e-015 7.95139e-015
rhumerus 25.9361 3.70393 -56.8668
rradius 27.4966
rwrist 3.74236
rhand -21.8196 16.3007
rfingers 7.12502
rthumb 4.58293 -13.6297
lclavicle 4.77083e-015 7.95139e-015
lhumerus 0.93248 16.0931 52.6078
lradius 23.9621
lwrist 10.0436
lhand -29.9964 29.5425
lfingers 7.12502
lthumb -3.31395 59.4965
rfemur -40.9278 0.61139 -3.76043
rtibia 42.0277
rfoot -20.8584 -6.17497
rtoes -34.9862
lfemur -45.0313 6.85311 3.27016
ltibia 44.6382
lfoot -18.2666 2.28051
ltoes -49.2914
